<svg version="1.1" id="Layer_1" xmlns="http://www.w3.org/2000/svg" xmlns:xlink="http://www.w3.org/1999/xlink" x="0px" y="0px"
	 width="100%" viewBox="0 0 512 512" enable-background="new 0 0 512 512" xml:space="preserve">
<path fill="#FFFFFF" opacity="1.000000" stroke="none" 
	d="
M0.999999,465.000000 
	C1.000000,310.386658 1.000000,155.773331 1.000000,1.079997 
	C171.554443,1.079997 342.108948,1.079997 513.000000,1.079997 
	C513.000000,91.023048 513.000000,181.046509 512.651245,271.420532 
	C509.866516,265.425934 507.442017,259.076416 504.992615,252.736481 
	C494.654816,225.978607 484.377197,199.197205 473.938843,172.478592 
	C468.644073,158.925659 456.754425,156.692490 447.692352,167.113586 
	C430.881287,186.445755 414.001831,205.721664 396.918945,224.813492 
	C373.606140,250.867859 350.030457,276.686859 326.677521,302.705536 
	C321.872192,308.059357 316.611206,310.957977 309.024506,311.182953 
	C279.897644,312.046722 250.844086,313.718109 221.642349,311.542603 
	C210.817398,310.736145 202.728622,307.641296 195.400620,299.898254 
	C173.178329,276.417450 149.772873,254.156174 124.463066,233.981888 
	C110.932442,223.196701 97.436386,212.355057 83.604408,201.965347 
	C73.407890,194.306366 63.002945,196.808289 56.769699,207.907928 
	C54.750114,211.504242 53.086544,215.343491 51.645443,219.215042 
	C36.008991,261.222748 25.598618,304.545624 19.139996,348.861328 
	C16.843584,364.618103 15.813767,380.291870 20.839710,395.788788 
	C21.275856,397.133606 21.144268,398.820618 20.803137,400.234497 
	C18.042326,411.677094 15.620577,423.230103 12.196090,434.475586 
	C9.043865,444.826965 4.776264,454.838654 0.999999,465.000000 
z"/>
<path fill="#000000" opacity="1.000000" stroke="none" 
	d="
M0.999999,465.468658 
	C4.776264,454.838654 9.043865,444.826965 12.196090,434.475586 
	C15.620577,423.230103 18.042326,411.677094 20.803137,400.234497 
	C21.144268,398.820618 21.275856,397.133606 20.839710,395.788788 
	C15.813767,380.291870 16.843584,364.618103 19.139996,348.861328 
	C25.598618,304.545624 36.008991,261.222748 51.645443,219.215042 
	C53.086544,215.343491 54.750114,211.504242 56.769699,207.907928 
	C63.002945,196.808289 73.407890,194.306366 83.604408,201.965347 
	C97.436386,212.355057 110.932442,223.196701 124.463066,233.981888 
	C149.772873,254.156174 173.178329,276.417450 195.400620,299.898254 
	C202.728622,307.641296 210.817398,310.736145 221.642349,311.542603 
	C250.844086,313.718109 279.897644,312.046722 309.024506,311.182953 
	C316.611206,310.957977 321.872192,308.059357 326.677521,302.705536 
	C350.030457,276.686859 373.606140,250.867859 396.918945,224.813492 
	C414.001831,205.721664 430.881287,186.445755 447.692352,167.113586 
	C456.754425,156.692490 468.644073,158.925659 473.938843,172.478592 
	C484.377197,199.197205 494.654816,225.978607 504.992615,252.736481 
	C507.442017,259.076416 509.866516,265.425934 512.651245,271.885529 
	C513.000000,352.235870 513.000000,432.471771 513.000000,513.000000 
	C473.312927,513.000000 433.625122,513.000000 393.212494,512.694336 
	C401.696472,506.618256 409.568848,499.473206 416.547668,491.057281 
	C436.480743,467.019653 425.606049,436.159882 403.007721,423.884064 
	C398.508240,421.439850 394.222198,418.576813 389.967590,415.713867 
	C383.835724,411.587708 377.224487,409.690704 369.787720,410.065979 
	C363.577515,410.379303 357.252625,410.765289 351.127838,409.969757 
	C334.979462,407.872284 318.292816,416.572296 311.367554,431.370331 
	C302.142731,451.082001 308.796661,477.083344 326.318481,490.579376 
	C328.874908,492.548401 330.852631,495.307739 332.950287,497.824615 
	C336.433685,502.004242 339.827789,506.259918 343.178162,510.547150 
	C343.678711,511.187683 343.737091,512.173767 344.000000,513.000000 
	C298.645782,513.000000 253.291550,513.000000 207.103790,512.766907 
	C207.162994,511.388275 207.981049,510.174194 208.959763,509.107544 
	C221.169006,495.801300 224.094437,480.094391 219.444336,463.230652 
	C214.164398,444.082886 200.997635,430.928528 184.140533,421.302887 
	C177.270020,417.379700 169.628067,414.893036 161.709137,416.061493 
	C149.485031,417.865173 137.105515,419.586090 125.311035,423.089691 
	C109.926758,427.659698 100.659767,442.929810 102.984680,458.766907 
	C105.860657,478.357727 115.030579,495.061035 128.608582,509.400208 
	C129.584503,510.430847 130.211029,511.792328 131.000000,513.000000 
	C87.773430,513.000000 44.546860,513.000000 1.000000,513.000000 
	C1.000000,497.313904 1.000000,481.625610 0.999999,465.468658 
z"/>
<path fill="#FDFDFD" opacity="1.000000" stroke="none" 
	d="
M344.468658,513.000000 
	C343.737091,512.173767 343.678711,511.187683 343.178162,510.547150 
	C339.827789,506.259918 336.433685,502.004242 332.950287,497.824615 
	C330.852631,495.307739 328.874908,492.548401 326.318481,490.579376 
	C308.796661,477.083344 302.142731,451.082001 311.367554,431.370331 
	C318.292816,416.572296 334.979462,407.872284 351.127838,409.969757 
	C357.252625,410.765289 363.577515,410.379303 369.787720,410.065979 
	C377.224487,409.690704 383.835724,411.587708 389.967590,415.713867 
	C394.222198,418.576813 398.508240,421.439850 403.007721,423.884064 
	C425.606049,436.159882 436.480743,467.019653 416.547668,491.057281 
	C409.568848,499.473206 401.696472,506.618256 392.743835,512.694336 
	C376.979095,513.000000 360.958221,513.000000 344.468658,513.000000 
M345.508240,475.729706 
	C348.145050,480.818054 349.769592,486.905548 353.614777,490.801178 
	C363.793793,501.113861 382.188049,494.524353 385.861603,479.404297 
	C388.509888,468.504089 386.795685,457.424011 383.728790,446.916473 
	C381.077972,437.834503 371.247040,434.216888 362.396057,437.682465 
	C358.546997,439.189575 354.743011,440.865936 350.794128,442.050934 
	C345.241608,443.717133 342.922028,446.136749 343.225159,452.070129 
	C343.615234,459.705322 344.538208,467.313293 345.508240,475.729706 
z"/>
<path fill="#FDFDFD" opacity="1.000000" stroke="none" 
	d="
M131.468658,513.000000 
	C130.211029,511.792328 129.584503,510.430847 128.608582,509.400208 
	C115.030579,495.061035 105.860657,478.357727 102.984680,458.766907 
	C100.659767,442.929810 109.926758,427.659698 125.311035,423.089691 
	C137.105515,419.586090 149.485031,417.865173 161.709137,416.061493 
	C169.628067,414.893036 177.270020,417.379700 184.140533,421.302887 
	C200.997635,430.928528 214.164398,444.082886 219.444336,463.230652 
	C224.094437,480.094391 221.169006,495.801300 208.959763,509.107544 
	C207.981049,510.174194 207.162994,511.388275 206.635132,512.766907 
	C198.312439,513.000000 189.624863,513.000000 180.609085,512.693115 
	C186.024841,508.735931 190.199127,503.629852 191.292328,496.999817 
	C192.500809,489.670593 193.200531,482.126953 192.948746,474.716522 
	C192.514099,461.925140 185.878647,452.531921 174.935684,446.079773 
	C170.977478,443.745911 167.174210,443.969940 164.075912,447.306946 
	C159.436752,452.303558 154.952682,457.463257 150.682236,462.778198 
	C145.633621,469.061676 145.001282,476.281921 146.591736,484.015900 
	C149.008560,495.768219 155.517273,504.949524 164.000000,513.000000 
	C153.312439,513.000000 142.624878,513.000000 131.468658,513.000000 
z"/>
<path fill="#020202" opacity="1.000000" stroke="none" 
	d="
M164.466858,513.000000 
	C155.517273,504.949524 149.008560,495.768219 146.591736,484.015900 
	C145.001282,476.281921 145.633621,469.061676 150.682236,462.778198 
	C154.952682,457.463257 159.436752,452.303558 164.075912,447.306946 
	C167.174210,443.969940 170.977478,443.745911 174.935684,446.079773 
	C185.878647,452.531921 192.514099,461.925140 192.948746,474.716522 
	C193.200531,482.126953 192.500809,489.670593 191.292328,496.999817 
	C190.199127,503.629852 186.024841,508.735931 180.140442,512.693115 
	C174.977905,513.000000 169.955811,513.000000 164.466858,513.000000 
z"/>
<path fill="#030303" opacity="1.000000" stroke="none" 
	d="
M345.369934,475.331360 
	C344.538208,467.313293 343.615234,459.705322 343.225159,452.070129 
	C342.922028,446.136749 345.241608,443.717133 350.794128,442.050934 
	C354.743011,440.865936 358.546997,439.189575 362.396057,437.682465 
	C371.247040,434.216888 381.077972,437.834503 383.728790,446.916473 
	C386.795685,457.424011 388.509888,468.504089 385.861603,479.404297 
	C382.188049,494.524353 363.793793,501.113861 353.614777,490.801178 
	C349.769592,486.905548 348.145050,480.818054 345.369934,475.331360 
z"/>
</svg>